# xmcd CD database file
#
# Track frame offsets:
#	182
#	11100
#	29802
#	41995
#	54852
#	68230
#	77400
#	98125
#	111512
#	127600
#	149622
#	186750
#	208042
#	224522
#	237485
#
# Disc length: 3432 seconds
#
# Revision: 3
# Processed by: cddbd v1.5PL3 Copyright (c) Steve Scherf et al.
# Submitted via: CDex 1.40Release
#
DISCID=e00d660f
DTITLE=Don Edwards - Saddle Songs [CD2]
DYEAR=1997
DGENRE=Country
TTITLE0=Minstrel Of The Range
TTITLE1=The Long Road West
TTITLE2=Miss Aledo
TTITLE3=Ridin'
TTITLE4='Longside The Santa Fe Trail
TTITLE5=Wanderin' Cowboy
TTITLE6=The Strawberry Roan
TTITLE7=The Glory Trail
TTITLE8=I'd Like To Be In Texas
TTITLE9=Doney Gal
TTITLE10=Stompede! - Masters Call
TTITLE11=After The Roundup
TTITLE12=Rounded Up In Glory
TTITLE13=Philosophical Cowboy
TTITLE14=The Old Cow Man
EXTD=YEAR: 1997 ID3G: 2
EXTT0=
EXTT1=
EXTT2=
EXTT3=
EXTT4=
EXTT5=
EXTT6=
EXTT7=
EXTT8=
EXTT9=
EXTT10=
EXTT11=
EXTT12=
EXTT13=
EXTT14=
PLAYORDER=
